# xmcd CD database file
#
# Track frame offsets:
#	150
#	23725
#	38617
#	71439
#	89739
#	112551
#	135502
#	160862
#	182241
#	206311
#
# Disc length: 3168 seconds
#
# Revision: 1
# Processed by: cddbd v1.5.1PL0 Copyright (c) Steve Scherf et al.
# Submitted via: CDex 1.51
#
DISCID=760c5e0a
DTITLE=Modern Tang Allures - Teresa Wong Huqin
DYEAR=2004
DGENRE=New Age
TTITLE0=Hide And Seek
TTITLE1=Rockin' Skirt
TTITLE2=Angel From The Silk Road
TTITLE3=Tang Swings
TTITLE4=Ardent Yearnings
TTITLE5=Modern Tang Allures
TTITLE6=A Bin Of Pearls
TTITLE7=Merry Dance To Song
TTITLE8=Never - Ending Whirling Dance
TTITLE9=An Unfettered Flying Duo
EXTD=YEAR: 2004
EXTT0=
EXTT1=
EXTT2=
EXTT3=
EXTT4=
EXTT5=
EXTT6=
EXTT7=
EXTT8=
EXTT9=
PLAYORDER=
